HIERARCHY
ROOT Hips
{
	OFFSET 0.000000 121.760803 0.000000
	CHANNELS 6 Xposition Yposition Zposition Xrotation Yrotation Zrotation 
	JOINT Spine
	{
		OFFSET 0.072000 7.257294 -0.789700
		CHANNELS 3 Xrotation Yrotation Zrotation
		JOINT Spine1
		{
			OFFSET 0.000000 12.508769 -0.658067
			CHANNELS 3 Xrotation Yrotation Zrotation
			JOINT Spine1_split
			{
				OFFSET 0.000000 12.508769 -0.658067
				CHANNELS 3 Xrotation Yrotation Zrotation
				JOINT Spine2
				{
					OFFSET 0.000000 12.508769 -0.658067
					CHANNELS 3 Xrotation Yrotation Zrotation
					JOINT Neck
					{
						OFFSET 0.000000 14.033295 7.520400
						CHANNELS 3 Xrotation Yrotation Zrotation
						JOINT Head
						{
							OFFSET 0.000000 8.198502 5.703100
							CHANNELS 3 Xrotation Yrotation Zrotation
							JOINT HeadTop_End
							{
								OFFSET 0.000000 17.760803 13.332701
								CHANNELS 3 Xrotation Yrotation Zrotation
								End Site
								{
									OFFSET 0.000000 0.000000 0.000000
								}
							}
						}
					}
					JOINT LeftShoulder
					{
						OFFSET 6.292450 5.785301 -0.669000
						CHANNELS 3 Xrotation Yrotation Zrotation
						JOINT LeftShoulder_split
						{
							OFFSET 6.292450 5.785301 -0.669000
							CHANNELS 3 Xrotation Yrotation Zrotation
							JOINT LeftArm
							{
								OFFSET 13.907140 -6.093903 1.965100
								CHANNELS 3 Xrotation Yrotation Zrotation
								JOINT LeftForeArm
								{
									OFFSET 34.140198 0.000000 0.000000
									CHANNELS 3 Xrotation Yrotation Zrotation
									JOINT LeftHand
									{
										OFFSET 40.960209 0.000000 0.000000
										CHANNELS 3 Xrotation Yrotation Zrotation
										JOINT LeftHandThumb1
										{
											OFFSET 10.006996 -7.170425 9.573125
											CHANNELS 3 Xrotation Yrotation Zrotation
											JOINT LeftHandThumb2
											{
												OFFSET 1.835007 -1.059448 1.059443
												CHANNELS 3 Xrotation Yrotation Zrotation
												JOINT LeftHandThumb3
												{
													OFFSET 2.112267 -1.219513 1.219518
													CHANNELS 3 Xrotation Yrotation Zrotation
													JOINT LeftHandThumb4
													{
														OFFSET 4.843811 -2.796570 2.796576
														CHANNELS 3 Xrotation Yrotation Zrotation
														End Site
														{
															OFFSET 0.000000 0.000000 0.000000
														}
													}
												}
											}
										}
										JOINT LeftHandIndex1
										{
											OFFSET 18.389847 -0.922348 4.596882
											CHANNELS 3 Xrotation Yrotation Zrotation
											JOINT LeftHandIndex2
											{
												OFFSET 4.711273 0.000000 0.000000
												CHANNELS 3 Xrotation Yrotation Zrotation
												JOINT LeftHandIndex3
												{
													OFFSET 2.886131 0.000000 0.000000
													CHANNELS 3 Xrotation Yrotation Zrotation
													JOINT LeftHandIndex4
													{
														OFFSET 6.145912 0.000000 0.000000
														CHANNELS 3 Xrotation Yrotation Zrotation
														End Site
														{
															OFFSET 0.000000 0.000000 0.000000
														}
													}
												}
											}
										}
										JOINT LeftHandMiddle1
										{
											OFFSET 18.013008 0.000000 0.000000
											CHANNELS 3 Xrotation Yrotation Zrotation
											JOINT LeftHandMiddle2
											{
												OFFSET 4.946693 0.000000 0.000000
												CHANNELS 3 Xrotation Yrotation Zrotation
												JOINT LeftHandMiddle3
												{
													OFFSET 3.342232 0.000000 0.000000
													CHANNELS 3 Xrotation Yrotation Zrotation
													JOINT LeftHandMiddle4
													{
														OFFSET 4.461754 0.000000 0.000000
														CHANNELS 3 Xrotation Yrotation Zrotation
														End Site
														{
															OFFSET 0.000000 0.000000 0.000000
														}
													}
												}
											}
										}
										JOINT LeftHandRing1
										{
											OFFSET 15.849892 -0.102921 -4.126150
											CHANNELS 3 Xrotation Yrotation Zrotation
											JOINT LeftHandRing2
											{
												OFFSET 3.527054 0.000000 0.000000
												CHANNELS 3 Xrotation Yrotation Zrotation
												JOINT LeftHandRing3
												{
													OFFSET 2.961098 0.000000 0.000000
													CHANNELS 3 Xrotation Yrotation Zrotation
													JOINT LeftHandRing4
													{
														OFFSET 4.927200 0.000000 0.000000
														CHANNELS 3 Xrotation Yrotation Zrotation
														End Site
														{
															OFFSET 0.000000 0.000000 0.000000
														}
													}
												}
											}
										}
										JOINT LeftHandPinky1
										{
											OFFSET 12.791824 -0.832031 -6.799156
											CHANNELS 3 Xrotation Yrotation Zrotation
											JOINT LeftHandPinky2
											{
												OFFSET 3.327133 0.000000 0.000000
												CHANNELS 3 Xrotation Yrotation Zrotation
												JOINT LeftHandPinky3
												{
													OFFSET 3.014900 0.000000 0.000000
													CHANNELS 3 Xrotation Yrotation Zrotation
													JOINT LeftHandPinky4
													{
														OFFSET 5.847786 0.000000 0.000000
														CHANNELS 3 Xrotation Yrotation Zrotation
														End Site
														{
															OFFSET 0.000000 0.000000 0.000000
														}
													}
												}
											}
										}
									}
								}
							}
						}
					}
					JOINT RightShoulder
					{
						OFFSET -6.292450 5.785301 -0.669000
						CHANNELS 3 Xrotation Yrotation Zrotation
						JOINT RightShoulder_split
						{
							OFFSET -6.292450 5.785301 -0.669000
							CHANNELS 3 Xrotation Yrotation Zrotation
							JOINT RightArm
							{
								OFFSET -13.907140 -6.093903 1.965100
								CHANNELS 3 Xrotation Yrotation Zrotation
								JOINT RightForeArm
								{
									OFFSET -34.140198 0.000000 0.000000
									CHANNELS 3 Xrotation Yrotation Zrotation
									JOINT RightHand
									{
										OFFSET -40.960209 0.000000 0.000000
										CHANNELS 3 Xrotation Yrotation Zrotation
										JOINT RightHandThumb1
										{
											OFFSET -10.007050 -7.170456 9.573117
											CHANNELS 3 Xrotation Yrotation Zrotation
											JOINT RightHandThumb2
											{
												OFFSET -1.835007 -1.059448 1.059443
												CHANNELS 3 Xrotation Yrotation Zrotation
												JOINT RightHandThumb3
												{
													OFFSET -2.112267 -1.219513 1.219518
													CHANNELS 3 Xrotation Yrotation Zrotation
													JOINT RightHandThumb4
													{
														OFFSET -4.843834 -2.796585 2.796590
														CHANNELS 3 Xrotation Yrotation Zrotation
														End Site
														{
															OFFSET 0.000000 0.000000 0.000000
														}
													}
												}
											}
										}
										JOINT RightHandIndex1
										{
											OFFSET -18.389870 -0.922424 4.596786
											CHANNELS 3 Xrotation Yrotation Zrotation
											JOINT RightHandIndex2
											{
												OFFSET -4.711273 0.000000 0.000000
												CHANNELS 3 Xrotation Yrotation Zrotation
												JOINT RightHandIndex3
												{
													OFFSET -2.886131 0.000000 0.000000
													CHANNELS 3 Xrotation Yrotation Zrotation
													JOINT RightHandIndex4
													{
														OFFSET -6.145920 0.000000 0.000000
														CHANNELS 3 Xrotation Yrotation Zrotation
														End Site
														{
															OFFSET 0.000000 0.000000 0.000000
														}
													}
												}
											}
										}
										JOINT RightHandMiddle1
										{
											OFFSET -18.013008 0.000000 0.000000
											CHANNELS 3 Xrotation Yrotation Zrotation
											JOINT RightHandMiddle2
											{
												OFFSET -4.946693 0.000000 0.000000
												CHANNELS 3 Xrotation Yrotation Zrotation
												JOINT RightHandMiddle3
												{
													OFFSET -3.342232 0.000000 0.000000
													CHANNELS 3 Xrotation Yrotation Zrotation
													JOINT RightHandMiddle4
													{
														OFFSET -4.461754 0.000000 0.000000
														CHANNELS 3 Xrotation Yrotation Zrotation
														End Site
														{
															OFFSET 0.000000 0.000000 0.000000
														}
													}
												}
											}
										}
										JOINT RightHandRing1
										{
											OFFSET -15.849876 -0.102936 -4.126237
											CHANNELS 3 Xrotation Yrotation Zrotation
											JOINT RightHandRing2
											{
												OFFSET -3.527054 0.000000 0.000000
												CHANNELS 3 Xrotation Yrotation Zrotation
												JOINT RightHandRing3
												{
													OFFSET -2.961098 0.000000 0.000000
													CHANNELS 3 Xrotation Yrotation Zrotation
													JOINT RightHandRing4
													{
														OFFSET -4.927200 0.000000 0.000000
														CHANNELS 3 Xrotation Yrotation Zrotation
														End Site
														{
															OFFSET 0.000000 0.000000 0.000000
														}
													}
												}
											}
										}
										JOINT RightHandPinky1
										{
											OFFSET -12.791786 -0.832077 -6.799222
											CHANNELS 3 Xrotation Yrotation Zrotation
											JOINT RightHandPinky2
											{
												OFFSET -3.327133 0.000000 0.000000
												CHANNELS 3 Xrotation Yrotation Zrotation
												JOINT RightHandPinky3
												{
													OFFSET -3.014900 0.000000 0.000000
													CHANNELS 3 Xrotation Yrotation Zrotation
													JOINT RightHandPinky4
													{
														OFFSET -5.847786 0.000000 0.000000
														CHANNELS 3 Xrotation Yrotation Zrotation
														End Site
														{
															OFFSET 0.000000 0.000000 0.000000
														}
													}
												}
											}
										}
									}
								}
							}
						}
					}
				}
			}
		}
	}
	JOINT LeftUpLeg
	{
		OFFSET 13.026900 -6.336304 -1.092800
		CHANNELS 3 Xrotation Yrotation Zrotation
		JOINT LeftLeg
		{
			OFFSET 0.524474 -46.096886 9.782700
			CHANNELS 3 Xrotation Yrotation Zrotation
			JOINT LeftFoot
			{
				OFFSET -0.524474 -53.427422 -12.948200
				CHANNELS 3 Xrotation Yrotation Zrotation
				JOINT LeftToeBase
				{
					OFFSET 0.192200 -14.009700 16.364100
					CHANNELS 3 Xrotation Yrotation Zrotation
					JOINT LeftToe_End
					{
						OFFSET -1.784700 -0.561700 9.474800
						CHANNELS 3 Xrotation Yrotation Zrotation
						End Site
						{
							OFFSET 0.000000 0.000000 0.000000
						}
					}
				}
			}
		}
	}
	JOINT RightUpLeg
	{
		OFFSET -12.883000 -6.336304 -1.092800
		CHANNELS 3 Xrotation Yrotation Zrotation
		JOINT RightLeg
		{
			OFFSET -0.524587 -46.096825 9.782800
			CHANNELS 3 Xrotation Yrotation Zrotation
			JOINT RightFoot
			{
				OFFSET 0.524587 -53.427383 -12.948300
				CHANNELS 3 Xrotation Yrotation Zrotation
				JOINT RightToeBase
				{
					OFFSET -0.192200 -14.009700 16.364100
					CHANNELS 3 Xrotation Yrotation Zrotation
					JOINT RightToe_End
					{
						OFFSET 1.784700 -0.561700 9.474800
						CHANNELS 3 Xrotation Yrotation Zrotation
						End Site
						{
							OFFSET 0.000000 0.000000 0.000000
						}
					}
				}
			}
		}
	}
}
MOTION
Frames: 5
Frame Time: 0.016667
1.694460 109.994431 -4.064339 2.054990 -10.528164 -1.607074 21.596341 5.799927 1.154036 2.971773 1.798109 -0.052723 0.000000 0.000000 0.000000 2.970860 1.873018 -0.065766 -3.972175 15.157914 2.233331 6.503278 46.829071 -20.357739 -0.000000 0.000001 -0.000000 1.350331 -32.914026 3.985057 0.000000 0.000000 0.000000 -22.769914 -14.531410 -67.625935 0.000029 -44.195709 -9.360745 -35.824404 -9.101365 -6.762465 -7.471936 1.860693 -7.166919 30.987001 27.310530 -4.510887 83.254665 13.297910 -10.940279 0.000000 0.000000 -0.000001 -4.686326 11.374154 -75.574185 -0.816401 3.073995 -46.874642 -4.740615 0.379142 -78.699434 0.000003 0.000000 0.000001 1.616613 16.582653 -84.688800 0.018009 0.022028 -72.884860 -1.306128 -0.091044 -19.943118 -0.000003 -0.000000 -0.000002 -7.765820 20.752797 -77.737784 0.013352 0.983455 -51.003604 6.778238 8.421306 -40.137880 0.000002 -0.000002 0.000000 -13.924171 3.850342 -44.469832 0.013457 0.024877 -63.895149 0.008425 0.013226 -43.420629 -0.000000 0.000001 0.000001 9.555400 22.112633 -11.863565 0.000000 0.000000 0.000000 -43.977843 10.617609 77.772987 0.000015 50.389044 2.241420 -28.429792 16.642762 6.785479 9.347157 2.810545 -11.364519 16.169047 -43.266025 15.843542 32.491862 -44.566738 5.661166 -0.000001 0.000001 0.000000 17.076779 -0.396530 31.924345 -0.204419 -0.284225 112.811550 1.553152 -1.173027 33.344543 -0.000000 -0.000001 -0.000000 9.205464 -5.035902 102.738094 0.014977 -0.019189 61.018499 1.871351 0.346191 31.443776 0.000000 -0.000001 0.000000 5.569139 -8.935236 107.329080 0.547996 -0.005789 41.263720 0.739127 0.837857 51.122228 0.000003 0.000001 -0.000001 6.511217 -17.148240 98.228038 0.007413 -0.015755 43.845733 0.011241 -0.024784 57.754556 0.000000 -0.000000 -0.000003 -35.315718 2.439891 7.836239 29.041964 0.645052 2.633824 4.387482 0.151992 -4.641481 -0.380451 -1.204948 -0.210153 -0.000000 0.000000 0.000000 -14.340037 -10.619271 -13.896312 31.797864 -10.252410 2.648896 -14.980359 -2.599021 12.912504 -1.190616 0.353813 0.637164 -0.000000 0.000000 -0.000000 
1.817862 110.032608 -3.703292 2.133447 -10.143335 -1.632177 21.548115 5.812541 0.941032 2.951617 1.865108 -0.160994 0.000000 0.000000 0.000000 2.950957 1.939448 -0.175154 -4.099836 15.090188 2.372694 6.098612 46.772907 -19.938082 -0.000000 0.000004 -0.000001 1.306147 -33.191291 4.056574 0.000000 0.000000 0.000000 -22.439080 -14.543428 -67.584783 0.000018 -44.463695 -8.793781 -35.436661 -8.587733 -7.126255 -7.471932 1.860689 -7.166929 30.986997 27.310527 -4.510892 83.254665 13.297912 -10.940282 -0.000003 -0.000000 -0.000000 -4.686383 11.374046 -75.571139 -0.816399 3.073995 -46.874642 -4.740617 0.379145 -78.699441 0.000002 -0.000001 0.000003 1.616628 16.582671 -84.688813 0.018021 0.022040 -72.884853 -1.306121 -0.091047 -19.943102 0.000001 0.000001 -0.000002 -7.759314 20.770694 -77.712738 0.013340 0.983452 -51.003618 6.778247 8.421308 -40.137880 0.000003 0.000002 -0.000002 -14.013707 3.966969 -44.412605 0.013510 0.024908 -64.018919 0.008412 0.013188 -43.300534 0.000001 -0.000002 0.000001 9.474261 21.562344 -11.639588 0.000000 0.000000 0.000000 -44.239074 10.875463 78.236805 0.000074 50.076410 2.034985 -28.523169 16.871177 6.756830 9.347157 2.810548 -11.364515 16.169049 -43.266018 15.843544 32.491849 -44.566738 5.661172 -0.000003 0.000001 0.000001 17.076776 -0.396529 31.924345 -0.204423 -0.284226 112.811543 1.553151 -1.173028 33.344543 -0.000000 -0.000001 -0.000000 9.205463 -5.035898 102.738087 0.014976 -0.019190 61.018506 1.871350 0.346194 31.443780 0.000000 0.000001 -0.000001 5.569136 -8.935235 107.329087 0.547996 -0.005788 41.263720 0.739127 0.837863 51.122228 -0.000001 0.000002 -0.000000 6.511215 -17.148237 98.228031 0.007408 -0.015752 43.845733 0.011241 -0.024784 57.754550 -0.000002 0.000001 0.000003 -35.326442 2.426617 7.585916 29.162872 0.415763 2.672680 4.173475 0.154834 -4.479159 -0.389914 -1.257103 -0.209096 -0.000000 -0.000000 -0.000000 -13.940767 -10.690183 -13.947667 31.512768 -10.561138 2.666758 -15.007891 -2.673764 13.185697 -1.185614 0.325712 0.665573 -0.000000 -0.000001 -0.000000 
1.933235 110.062271 -3.344293 2.212529 -9.782877 -1.640835 21.495789 5.805262 0.720766 2.933347 1.930218 -0.273806 0.000000 0.000000 0.000000 2.932951 2.004093 -0.288580 -4.241898 15.007608 2.532610 5.637717 46.665983 -19.447733 -0.000000 0.000000 0.000000 1.253901 -33.456828 4.134836 0.000000 0.000000 0.000000 -22.076218 -14.578441 -67.548160 0.000009 -44.717023 -8.228641 -35.111557 -8.142435 -7.495871 -7.471932 1.860689 -7.166923 30.986990 27.310525 -4.510896 83.254665 13.297912 -10.940275 -0.000002 0.000002 -0.000001 -4.686457 11.373936 -75.568100 -0.816402 3.073996 -46.874642 -4.740617 0.379143 -78.699441 0.000000 0.000002 -0.000000 1.616626 16.582653 -84.688806 0.018016 0.022038 -72.884867 -1.306122 -0.091056 -19.943111 -0.000002 -0.000000 -0.000002 -7.752835 20.788965 -77.688149 0.013350 0.983438 -51.003618 6.778225 8.421316 -40.137880 -0.000001 0.000001 -0.000002 -14.104046 4.086263 -44.357619 0.013566 0.024922 -64.143543 0.008376 0.013159 -43.178093 0.000000 -0.000001 -0.000000 9.408126 21.067915 -11.442657 0.000000 0.000000 0.000000 -44.479858 11.089954 78.693410 0.000079 49.790993 1.848454 -28.571603 17.092979 6.703820 9.347158 2.810546 -11.364515 16.169045 -43.266025 15.843537 32.491859 -44.566738 5.661165 -0.000002 -0.000001 0.000000 17.076777 -0.396530 31.924345 -0.204419 -0.284226 112.811543 1.553152 -1.173028 33.344550 -0.000000 -0.000000 0.000002 9.205465 -5.035901 102.738087 0.014978 -0.019192 61.018506 1.871351 0.346193 31.443780 0.000002 -0.000001 0.000002 5.569140 -8.935235 107.329087 0.547996 -0.005789 41.263714 0.739127 0.837863 51.122228 0.000000 0.000002 -0.000001 6.511216 -17.148242 98.228038 0.007408 -0.015754 43.845730 0.011241 -0.024782 57.754550 -0.000001 -0.000001 -0.000001 -35.334088 2.398190 7.345032 29.294022 0.220505 2.690906 3.952749 0.157701 -4.324906 -0.394785 -1.284869 -0.208669 -0.000000 -0.000000 -0.000000 -13.574339 -10.787032 -14.004544 31.248440 -10.823931 2.657205 -15.045643 -2.747112 13.449722 -1.177339 0.301208 0.690883 -0.000000 0.000002 0.000000 
2.041047 110.082870 -2.988760 2.292211 -9.445261 -1.636265 21.439431 5.792544 0.499109 2.917136 1.985256 -0.390848 0.000000 0.000000 0.000000 2.916577 2.058883 -0.406592 -4.390912 14.896784 2.706927 5.129817 46.544990 -18.898481 0.000000 -0.000000 -0.000000 1.216770 -33.714483 4.232018 0.000000 0.000000 0.000000 -21.704806 -14.643560 -67.511413 -0.000000 -44.942512 -7.663739 -34.862880 -7.769636 -7.870573 -7.471934 1.860693 -7.166924 30.987001 27.310527 -4.510894 83.254665 13.297910 -10.940277 -0.000000 -0.000000 -0.000000 -4.686544 11.373815 -75.565033 -0.816400 3.073993 -46.874642 -4.740617 0.379145 -78.699441 -0.000004 -0.000001 0.000002 1.616626 16.582658 -84.688834 0.018016 0.022036 -72.884860 -1.306126 -0.091040 -19.943099 0.000003 -0.000003 0.000001 -7.746363 20.807546 -77.664059 0.013342 0.983455 -51.003598 6.778239 8.421304 -40.137890 -0.000002 0.000001 0.000001 -14.195114 4.208190 -44.304804 0.013625 0.024950 -64.268918 0.008330 0.013122 -43.053377 -0.000000 0.000003 -0.000000 9.352111 20.644021 -11.270545 0.000000 0.000000 0.000000 -44.692148 11.251935 79.128507 0.000016 49.534205 1.683199 -28.576046 17.303991 6.626681 9.347161 2.810547 -11.364518 16.169050 -43.266018 15.843544 32.491855 -44.566735 5.661171 0.000001 0.000001 0.000002 17.076779 -0.396529 31.924338 -0.204422 -0.284225 112.811543 1.553152 -1.173028 33.344546 -0.000000 0.000000 -0.000001 9.205467 -5.035900 102.738087 0.014978 -0.019190 61.018506 1.871350 0.346189 31.443773 -0.000001 -0.000000 0.000000 5.569143 -8.935232 107.329080 0.547995 -0.005785 41.263720 0.739127 0.837863 51.122228 -0.000000 0.000001 -0.000003 6.511218 -17.148235 98.228031 0.007408 -0.015754 43.845733 0.011241 -0.024788 57.754550 -0.000003 -0.000001 -0.000003 -35.349938 2.412949 7.106845 29.437436 0.011046 2.723459 3.726001 0.158991 -4.175252 -0.395707 -1.291657 -0.208759 -0.000000 0.000000 0.000000 -13.218360 -10.820610 -14.069960 31.015612 -11.115560 2.669402 -15.092071 -2.821898 13.712913 -1.223655 0.270142 0.714838 -0.000000 0.000000 0.000000 
2.142036 110.094070 -2.637765 2.372053 -9.129938 -1.622824 21.386685 5.773529 0.276247 2.896509 2.031294 -0.507782 0.000000 0.000000 0.000000 2.895729 2.104703 -0.524033 -4.533417 14.805553 2.906743 4.596143 46.378825 -18.323996 -0.000000 0.000002 -0.000000 1.196603 -33.968826 4.341381 0.000000 0.000000 0.000000 -21.324038 -14.743441 -67.469148 -0.000013 -45.137059 -7.099058 -34.700178 -7.468996 -8.244137 -7.471932 1.860688 -7.166923 30.986990 27.310527 -4.510888 83.254658 13.297911 -10.940279 -0.000002 0.000000 -0.000001 -4.686618 11.373703 -75.561952 -0.816400 3.073999 -46.874639 -4.740617 0.379146 -78.699441 0.000000 0.000002 0.000001 1.616622 16.582659 -84.688820 0.018017 0.022039 -72.884860 -1.306126 -0.091032 -19.943128 -0.000001 -0.000000 0.000004 -7.739925 20.826497 -77.640441 0.013338 0.983450 -51.003611 6.778232 8.421308 -40.137880 0.000000 -0.000000 -0.000002 -14.286819 4.332724 -44.254110 0.013656 0.024985 -64.395037 0.008321 0.013085 -42.926513 0.000000 -0.000000 0.000000 9.328136 20.301059 -11.130539 0.000000 0.000000 0.000000 -44.882915 11.356076 79.521338 0.000006 49.310619 1.545352 -28.543945 17.504300 6.522269 9.347160 2.810548 -11.364514 16.169052 -43.266018 15.843546 32.491849 -44.566738 5.661170 -0.000001 -0.000001 0.000001 17.076779 -0.396528 31.924345 -0.204421 -0.284225 112.811550 1.553152 -1.173028 33.344543 0.000000 -0.000001 -0.000001 9.205466 -5.035900 102.738087 0.014977 -0.019188 61.018506 1.871350 0.346188 31.443780 -0.000005 0.000001 -0.000001 5.569141 -8.935234 107.329087 0.547998 -0.005789 41.263720 0.739128 0.837863 51.122228 0.000003 -0.000000 -0.000003 6.511217 -17.148238 98.228038 0.007409 -0.015750 43.845730 0.011241 -0.024787 57.754556 -0.000000 -0.000002 -0.000001 -35.372054 2.439769 6.876009 29.595257 -0.192785 2.757782 3.493518 0.162678 -4.033004 -0.399354 -1.314335 -0.208466 0.000000 0.000000 -0.000000 -12.883957 -10.838211 -14.136555 30.809013 -11.401234 2.676124 -15.147278 -2.895016 13.973126 -1.198515 0.244094 0.744073 -0.000000 0.000001 0.000000 
